<?xml version="1.0" encoding="UTF-8" standalone="no"?>
<svg
   width="256"
   height="256"
   viewBox="0 0 24 24"
   fill="#000000"
   version="1.1"
   id="svg4"
   sodipodi:docname="mqtt.svg"
   inkscape:version="1.2.2 (b0a8486541, 2022-12-01)"
   xmlns:inkscape="http://www.inkscape.org/namespaces/inkscape"
   xmlns:sodipodi="http://sodipodi.sourceforge.net/DTD/sodipodi-0.dtd"
   xmlns="http://www.w3.org/2000/svg"
   xmlns:svg="http://www.w3.org/2000/svg">
  <defs
     id="defs8" />
  <sodipodi:namedview
     id="namedview6"
     pagecolor="#ffffff"
     bordercolor="#000000"
     borderopacity="0.25"
     inkscape:showpageshadow="2"
     inkscape:pageopacity="0.0"
     inkscape:pagecheckerboard="0"
     inkscape:deskcolor="#d1d1d1"
     showgrid="false"
     inkscape:zoom="0.61417641"
     inkscape:cx="-107.46098"
     inkscape:cy="289.00491"
     inkscape:window-width="1280"
     inkscape:window-height="650"
     inkscape:window-x="0"
     inkscape:window-y="0"
     inkscape:window-maximized="1"
     inkscape:current-layer="svg4" />
  <path
     fill="#000000"
     d="M 10.8887,21.925139 H 3.0690685 A 1.0028987,1.0028987 0 0 1 2.0703072,20.927205 v -7.596213 h 0.058751 c 4.7861106,0 8.6917888,3.847755 8.7596418,8.594147 z m 6.293768,0 H 13.835335 C 13.766654,15.513869 8.5204684,10.326434 2.0703072,10.297472 V 7.0670127 h 0.058751 c 8.2606748,0 14.9946588,6.6562023 15.0534098,14.8581263 z m 3.748458,0 h -0.80265 C 20.07118,12.059164 11.99586,4.062454 2.0703072,4.0334924 V 3.0736223 c 0,-0.5477879 0.450146,-0.9979338 0.9987613,-0.9979338 H 9.3909712 C 15.088958,4.1311343 19.659926,8.51592 21.929687,14.075719 v 6.860588 c 0,0.548616 -0.450146,0.988832 -0.998761,0.988832 z M 15.899883,2.0756885 h 5.040973 a 0.98469427,0.98469427 0 0 1 0.988831,0.9880041 V 7.9573749 C 21.176686,6.929652 20.236675,5.7645683 19.316524,4.8444171 18.278871,3.8166941 17.065794,2.8874406 15.90071,2.074861 Z"
     id="path2"
     style="stroke-width:0.827474;fill:#2d1650" />
</svg>
